<svg xmlns="http://www.w3.org/2000/svg" viewBox="0 0 512 512" role="img" aria-label="Starter office worker">
  <defs>
    <filter id="glow"><feGaussianBlur stdDeviation="4" result="b"/><feMerge><feMergeNode in="b"/><feMergeNode in="SourceGraphic"/></feMerge></filter>
    <filter id="rough"><feTurbulence baseFrequency=".017" numOctaves="2" seed="11"/><feDisplacementMap in="SourceGraphic" scale="1.3"/></filter>
  </defs>
  <rect width="512" height="512" rx="26" fill="#090914"/>
  <path d="M94 424 C178 456 333 455 416 424" fill="none" stroke="#221a22" stroke-width="16" opacity=".72"/>
  <g filter="url(#rough)" stroke-linecap="round" stroke-linejoin="round">
    <path d="M205 150 C211 114 249 95 286 111 C318 125 324 166 298 191 C270 216 214 199 205 150Z" fill="#dbc2aa" stroke="#151019" stroke-width="8"/>
    <path d="M190 123 C224 77 292 84 315 126 C279 108 224 111 190 123Z" fill="#16131a" stroke="#2b2323" stroke-width="8"/>
    <path d="M195 204 C224 188 287 188 316 204 L338 365 C296 392 214 391 172 365Z" fill="#d8d4cc" stroke="#17131a" stroke-width="9"/>
    <path d="M232 199 L257 363 L285 200" fill="#27212a" stroke="#151019" stroke-width="6"/>
    <path d="M171 240 L126 315 M340 238 L390 310" fill="none" stroke="#d8d4cc" stroke-width="25"/>
    <path d="M126 315 C120 345 135 362 164 354 M388 309 C404 337 393 359 362 356" fill="none" stroke="#d8c0a9" stroke-width="16"/>
    <path d="M197 363 L188 455 M299 363 L316 455" fill="none" stroke="#161a22" stroke-width="30"/>
    <path d="M179 455 C207 470 236 467 250 452 M292 452 C308 470 348 470 368 454" fill="none" stroke="#0d1119" stroke-width="14"/>
    <path d="M322 262 L391 273 L386 380 L319 368Z" fill="#17131a" stroke="#2b2733" stroke-width="8"/>
  </g>
  <g filter="url(#glow)" stroke-linecap="round">
    <path d="M367 270 L406 332" stroke="#ff765d" stroke-width="4" opacity=".48"/>
    <path d="M148 122 C137 106 136 88 149 73" stroke="#ff765d" stroke-width="5" opacity=".42"/>
    <path d="M348 120 C365 103 370 84 360 65" stroke="#ff765d" stroke-width="5" opacity=".42"/>
    <path d="M205 281 H310" stroke="#52f0ff" stroke-width="4" opacity=".4"/>
  </g>
</svg>
