<svg xmlns="http://www.w3.org/2000/svg" viewBox="0 0 512 512" role="img" aria-label="Starter cleaner">
  <defs>
    <filter id="glow"><feGaussianBlur stdDeviation="4" result="b"/><feMerge><feMergeNode in="b"/><feMergeNode in="SourceGraphic"/></feMerge></filter>
    <filter id="rough"><feTurbulence baseFrequency=".018" numOctaves="2" seed="7"/><feDisplacementMap in="SourceGraphic" scale="1.4"/></filter>
  </defs>
  <rect width="512" height="512" rx="26" fill="#080b16"/>
  <path d="M98 422 C172 453 328 454 416 423" fill="none" stroke="#172438" stroke-width="16" opacity=".7"/>
  <g filter="url(#rough)" stroke-linecap="round" stroke-linejoin="round">
    <path d="M206 155 C214 122 252 105 284 121 C309 133 315 169 293 190 C269 213 221 198 206 155Z" fill="#d8c0a9" stroke="#17131a" stroke-width="8"/>
    <path d="M198 134 C223 86 290 87 316 139 C278 126 236 124 198 134Z" fill="#111827" stroke="#25364c" stroke-width="8"/>
    <path d="M183 205 C216 180 291 180 326 205 L348 370 C310 394 209 394 164 369Z" fill="#111a2a" stroke="#0d121d" stroke-width="10"/>
    <path d="M190 230 C226 248 280 248 322 229" fill="none" stroke="#5ee9ff" stroke-width="5" opacity=".55"/>
    <path d="M166 256 L118 328 M344 256 L396 320" fill="none" stroke="#1e2b3d" stroke-width="28"/>
    <path d="M160 258 L118 328 M350 258 L396 320" fill="none" stroke="#5ee9ff" stroke-width="4" opacity=".45"/>
    <path d="M199 370 L188 454 M299 370 L314 454" fill="none" stroke="#151a23" stroke-width="30"/>
    <path d="M181 456 C207 469 239 466 248 452 M292 452 C306 470 346 469 367 454" fill="none" stroke="#0d1119" stroke-width="14"/>
  </g>
  <g filter="url(#glow)">
    <path d="M104 150 L392 404" stroke="#4df3ff" stroke-width="4" opacity=".45"/>
    <path d="M116 350 L73 443" stroke="#e8d7aa" stroke-width="8" stroke-linecap="round"/>
    <path d="M58 448 L128 448" stroke="#e8d7aa" stroke-width="18" stroke-linecap="round"/>
    <rect x="328" y="310" width="46" height="72" rx="10" fill="#101827" stroke="#5ee9ff" stroke-width="4"/>
    <path d="M350 314 V380" stroke="#5ee9ff" stroke-width="3" opacity=".55"/>
  </g>
</svg>
