<svg xmlns="http://www.w3.org/2000/svg" viewBox="0 0 1400 820" role="img" aria-label="Cyber xianxia neon city">
  <defs>
    <linearGradient id="sky" x1="0" y1="0" x2="1" y2="1">
      <stop offset="0" stop-color="#050611"/>
      <stop offset=".55" stop-color="#10091d"/>
      <stop offset="1" stop-color="#03040a"/>
    </linearGradient>
    <radialGradient id="moon" cx="50%" cy="50%" r="50%">
      <stop offset="0" stop-color="#79f8ff" stop-opacity=".42"/>
      <stop offset=".45" stop-color="#f351ff" stop-opacity=".16"/>
      <stop offset="1" stop-color="#79f8ff" stop-opacity="0"/>
    </radialGradient>
    <filter id="glow">
      <feGaussianBlur stdDeviation="4" result="blur"/>
      <feMerge>
        <feMergeNode in="blur"/>
        <feMergeNode in="SourceGraphic"/>
      </feMerge>
    </filter>
  </defs>
  <rect width="1400" height="820" fill="url(#sky)"/>
  <circle cx="1040" cy="160" r="170" fill="url(#moon)"/>
  <path d="M60 170 C260 122 430 220 620 158 C780 106 920 218 1120 144 C1240 98 1330 116 1390 90" fill="none" stroke="#34f4ff" stroke-opacity=".16" stroke-width="4"/>
  <path d="M0 620 L90 530 L150 570 L240 450 L310 520 L410 390 L500 520 L590 430 L710 560 L820 390 L930 520 L1020 430 L1140 560 L1240 470 L1400 600 V820 H0Z" fill="#080a15"/>
  <g opacity=".86">
    <rect x="64" y="405" width="92" height="300" fill="#0c1020"/>
    <rect x="92" y="360" width="36" height="52" fill="#0c1020"/>
    <rect x="220" y="315" width="116" height="392" fill="#0c1020"/>
    <rect x="520" y="270" width="136" height="436" fill="#0c1020"/>
    <rect x="790" y="348" width="110" height="358" fill="#0c1020"/>
    <rect x="1060" y="300" width="150" height="406" fill="#0c1020"/>
    <rect x="1260" y="400" width="74" height="306" fill="#0c1020"/>
  </g>
  <g filter="url(#glow)">
    <path d="M85 442 H135 M85 488 H135 M85 534 H135" stroke="#34f4ff" stroke-width="5" stroke-opacity=".78"/>
    <path d="M245 366 H310 M245 428 H310 M245 490 H310" stroke="#f451ff" stroke-width="6" stroke-opacity=".74"/>
    <path d="M553 328 H624 M553 396 H624 M553 464 H624" stroke="#56ff99" stroke-width="6" stroke-opacity=".62"/>
    <path d="M1090 360 H1180 M1090 434 H1180 M1090 508 H1180" stroke="#34f4ff" stroke-width="6" stroke-opacity=".66"/>
    <rect x="930" y="418" width="38" height="158" rx="8" fill="#f451ff" fill-opacity=".26" stroke="#f451ff" stroke-opacity=".72"/>
    <rect x="360" y="450" width="42" height="176" rx="8" fill="#34f4ff" fill-opacity=".2" stroke="#34f4ff" stroke-opacity=".72"/>
  </g>
  <g opacity=".34" stroke="#34f4ff">
    <path d="M0 710 H1400"/>
    <path d="M80 820 L540 590 M260 820 L650 590 M520 820 L760 590 M820 820 L870 590 M1110 820 L980 590 M1340 820 L1090 590"/>
  </g>
  <g opacity=".38" stroke-width="3" stroke-linecap="round">
    <path d="M160 80 L120 260" stroke="#34f4ff"/>
    <path d="M420 40 L370 260" stroke="#f451ff"/>
    <path d="M800 70 L750 290" stroke="#56ff99"/>
    <path d="M1240 50 L1190 280" stroke="#34f4ff"/>
  </g>
</svg>
