<svg xmlns="http://www.w3.org/2000/svg" viewBox="0 0 360 260" role="img" aria-label="bandit ink painting">
  <rect width="360" height="260" fill="#eadcc1"/>
  <path d="M128 222 C137 165 143 122 181 102 C217 121 226 166 233 222Z" fill="#1c1c18"/>
  <path d="M132 111 C146 72 181 55 217 78 C217 112 200 132 173 134 C153 132 139 124 132 111Z" fill="#25231f"/>
  <path d="M130 87 C164 65 197 63 227 87 C199 97 165 99 130 87Z" fill="#11120f"/>
  <path d="M145 105 C172 114 197 113 219 103" stroke="#c34b3b" stroke-width="10" stroke-linecap="round"/>
  <path d="M118 156 C76 150 47 135 29 104" stroke="#1b1b16" stroke-width="19" stroke-linecap="round"/>
  <path d="M231 153 C270 137 304 113 327 80" stroke="#1b1b16" stroke-width="19" stroke-linecap="round"/>
  <path d="M252 76 L328 39" stroke="#f2e7d3" stroke-width="8" stroke-linecap="round"/>
  <path d="M249 76 L329 34" stroke="#151511" stroke-width="4" stroke-linecap="round"/>
  <circle cx="163" cy="105" r="5" fill="#eadcc1"/>
  <circle cx="199" cy="105" r="5" fill="#eadcc1"/>
  <path d="M151 223 C145 239 141 249 134 260M217 223 C222 239 227 249 235 260" stroke="#151511" stroke-width="13" stroke-linecap="round"/>
  <path d="M95 229 C150 238 226 239 285 222" stroke="#6d604f" stroke-width="5" stroke-linecap="round" opacity="0.42"/>
</svg>
