<svg xmlns="http://www.w3.org/2000/svg" viewBox="0 0 360 260" role="img" aria-label="wild boar ink painting">
  <rect width="360" height="260" fill="#eadcc1"/>
  <path d="M44 177 C70 95 148 70 234 94 C293 111 324 150 329 203 C270 216 193 218 110 204 C73 198 51 190 44 177Z" fill="#26221d"/>
  <path d="M93 107 C120 65 149 41 174 26 C170 62 160 91 145 115Z" fill="#171512"/>
  <path d="M231 97 C269 87 309 95 333 119 C308 119 285 127 260 145Z" fill="#1c1915"/>
  <path d="M278 148 C306 150 333 162 348 184 C325 179 308 181 289 193Z" fill="#171512"/>
  <path d="M244 151 C269 155 285 158 305 168" stroke="#eadcc1" stroke-width="8" stroke-linecap="round" opacity="0.45"/>
  <path d="M255 164 C275 174 294 181 324 182" stroke="#f6ead3" stroke-width="9" stroke-linecap="round"/>
  <path d="M248 132 C253 126 263 125 270 132" stroke="#c34b3b" stroke-width="7" stroke-linecap="round"/>
  <path d="M93 199 C84 220 78 237 66 253M171 207 C167 228 164 242 155 258M258 205 C257 225 253 241 245 258" stroke="#1b1815" stroke-width="15" stroke-linecap="round"/>
  <path d="M39 205 C119 224 220 232 324 210" stroke="#6d604f" stroke-width="5" stroke-linecap="round" opacity="0.4"/>
</svg>
