<svg xmlns="http://www.w3.org/2000/svg" viewBox="0 0 1200 760" role="img" aria-label="ink mountain landscape">
  <defs>
    <linearGradient id="paper" x1="0" x2="1" y1="0" y2="1">
      <stop offset="0" stop-color="#efe3cf"/>
      <stop offset="0.55" stop-color="#d8c09a"/>
      <stop offset="1" stop-color="#8f8065"/>
    </linearGradient>
    <radialGradient id="sun" cx="74%" cy="27%" r="28%">
      <stop offset="0" stop-color="#be4a39" stop-opacity="0.72"/>
      <stop offset="0.55" stop-color="#be4a39" stop-opacity="0.18"/>
      <stop offset="1" stop-color="#be4a39" stop-opacity="0"/>
    </radialGradient>
    <pattern id="grain" width="18" height="18" patternUnits="userSpaceOnUse">
      <path d="M0 5h18M3 0v18M14 0v18" stroke="#1d1d18" stroke-opacity="0.025" stroke-width="1"/>
      <circle cx="5" cy="12" r="1" fill="#1d1d18" opacity="0.035"/>
    </pattern>
  </defs>
  <rect width="1200" height="760" fill="url(#paper)"/>
  <rect width="1200" height="760" fill="url(#sun)"/>
  <path d="M-50 640 C90 470 185 500 320 300 C445 115 535 420 675 230 C790 70 885 380 1010 210 C1110 95 1230 340 1300 260 L1300 820 L-50 820 Z" fill="#20211f" opacity="0.84"/>
  <path d="M-60 705 C145 545 250 580 400 420 C525 295 600 560 770 392 C925 250 1005 520 1280 368 L1280 820 L-60 820 Z" fill="#373b34" opacity="0.78"/>
  <path d="M-70 764 C185 606 340 705 525 555 C690 420 850 700 1010 520 C1120 400 1210 520 1300 470 L1300 820 L-70 820 Z" fill="#171917" opacity="0.92"/>
  <path d="M120 170 C260 120 360 130 520 180" fill="none" stroke="#1c1f1d" stroke-opacity="0.26" stroke-width="15" stroke-linecap="round"/>
  <path d="M680 145 C810 105 910 120 1030 170" fill="none" stroke="#1c1f1d" stroke-opacity="0.24" stroke-width="12" stroke-linecap="round"/>
  <path d="M130 500 C190 450 225 430 300 410" fill="none" stroke="#efe5d2" stroke-opacity="0.24" stroke-width="8" stroke-linecap="round"/>
  <path d="M520 470 C600 420 675 390 760 345" fill="none" stroke="#efe5d2" stroke-opacity="0.22" stroke-width="7" stroke-linecap="round"/>
  <path d="M900 455 C990 400 1060 360 1140 320" fill="none" stroke="#efe5d2" stroke-opacity="0.22" stroke-width="7" stroke-linecap="round"/>
  <rect width="1200" height="760" fill="url(#grain)"/>
</svg>
